# xmcd CD database file
#
# Track frame offsets:
#	150
#	21848
#	43069
#	60433
#	74850
#	87632
#	108360
#	123021
#	139563
#	157699
#	173765
#	192474
#	207422
#	225074
#	237490
#	254709
#	267230
#
# Disc length: 3846 seconds
#
# Revision: 0
# Processed by: cddbd v1.5.2PL0 Copyright (c) Steve Scherf et al.
# Submitted via: CDex 1.70beta2
#
DISCID=ed0f0411
DTITLE=Keith Frank - Loved. Feared. Respected.
DYEAR=2009
DGENRE=Rhythmic Soul
TTITLE0=OVERCOME - Keith Frank
TTITLE1=CASANOVA - Keith Frank
TTITLE2=I WONDER - Keith Frank
TTITLE3=THE EYE OF A HURRICANE - Keith Frank
TTITLE4=CARE FOR ME - Keith Frank
TTITLE5=SWEEP - Keith Frank
TTITLE6=IF I WAS YOUR MAN - Keith Frank
TTITLE7=337 CARAMEL CUTIE - Keith Frank
TTITLE8=WHO'S GONNA LOVE YOU NOW? - Keith Frank
TTITLE9=FIGHT 4 SOMETHING SO WRONG - Keith Frank
TTITLE10=54-46 - Keith Frank
TTITLE11=BRAD'S THEME SONG - Keith Frank
TTITLE12=LOVED. FEARED. RESPECTED. - Keith Frank
TTITLE13=MISSING OUT ON A DATE - Keith Frank
TTITLE14=TRAIL RIDE - Keith Frank
TTITLE15=ZYDECO SONT PAS SALE - Keith Frank
TTITLE16=HATERZ - Keith Frank, feat. Rayniske Frank
EXTD=YEAR: 2009
EXTT0=
EXTT1=
EXTT2=
EXTT3=
EXTT4=
EXTT5=
EXTT6=
EXTT7=
EXTT8=
EXTT9=
EXTT10=
EXTT11=
EXTT12=
EXTT13=
EXTT14=
EXTT15=
EXTT16=
PLAYORDER=
